<svg xmlns="http://www.w3.org/2000/svg" width="121" height="47" fill-rule="evenodd" stroke-linejoin="round" stroke-miterlimit="2"><path fill="#fff" d="M120 0s.83 15.44-9 20.86a21.716 21.716 0 0 1-6.64 2.63c6.64-4.84 6.06-15.93 6.06-15.93l-14.75 4.76a30.71 30.71 0 0 0-3.16 1.4 7.64 7.64 0 0 1 2.74-4.44A23.99 23.99 0 0 1 101.56 6L120 0zM92.58 13.77a14.04 14.04 0 0 0-.17 1.82c0 4.62 4.2 8.33 9.34 8.33h.37a19.39 19.39 0 0 0 2.5-.24c-.43.25-.76.5-1.18.74-3.2 1.74-5.73 2.4-7.75 2.3h-.25c-4-.12-7.23-3-7.23-6.68a6.43 6.43 0 0 1 2.35-5 10.82 10.82 0 0 1 2.02-1.28zm-53.85 18c0-1.62 1.5-2 3-1.86v2.92h-3v-1.06zm-15.8 0c0-1.62 1.5-2 3-1.86v2.92h-3v-1.06zM7.06 32h-3.9v4.3h3.9c1.67 0 2.17-.65 2.17-2.2S8.8 32 7.06 32zm.42 6.64H3.16v4.45h4.32c1.66 0 2.16-.73 2.16-2.26s-.5-2.2-2.16-2.2zm88.9 1.65c-1.16.08-2.24.25-3.24.4-1.25.24-1.75.57-1.75 1.64 0 .65.17 1.47 1.42 1.47s2.6-.07 3.4-.15h.17V40.3zm-77.25-6.6a7.575 7.575 0 0 1 2.4.16c0 1-.25 1.78-.83 2.1s-.92.16-1.67.24c-1.16 0-1.74.24-1.74 1.7v7.7h-3v-7.7c.01-3.16 1.7-4.13 4.83-4.2zM7.65 29.57c3.15 0 4.65 1.13 4.65 4.2a3.31 3.31 0 0 1-2.24 3.48c1.5.24 2.66 1.14 2.66 3.73 0 3.4-1.66 4.56-4.52 4.7H0v-16.1h7.65zm18.2 4.25v12h-3.08v-12h3.08zm15.8 0v12h-3.08v-12h3.08zm38.93-4.5c1.33 0 4.5.4 5.74.57 0 1.56-.67 2.46-2.42 2.38l-2.66-.17c-3.9-.24-4.66.82-4.66 5.5s.92 5.73 3.4 5.73c.84 0 2.83-.16 3.66-.25V39h-1.08c-1.58 0-2.16-.74-2-2.54h6.24v8.68c-2.277.45-4.59.697-6.9.74-4.74 0-6.57-1.9-6.57-8.35s1.5-8.2 7.25-8.2zm-25.63 1.85c0-1.64 1.5-2.05 3-1.88v6a15.902 15.902 0 0 1 4.93-1.3c2.6 0 3.5 1.4 3.5 3.85v8.12h-3V38l.001-.053a1.306 1.306 0 0 0-1.39-1.297 14.15 14.15 0 0 0-4 1.07v8.2h-3l-.06-14.76zm50.83 2.65c1.75 0 3.83.17 4.75.25 0 1.55-.67 2.3-2 2.2-.75 0-1.9-.08-3.16-.08-.75 0-1.33.32-1.33 1.06 0 .9.75 1.06 3.16 1.47 2.58.5 3.9 1.23 3.9 3.7s-1.9 3.52-5.08 3.52a62.37 62.37 0 0 1-4.65-.17l.16-2.45c1.08.08 2.83.16 4.4.16 1.08 0 2.25-.16 2.25-1.14 0-.82-.5-1-2.9-1.4-2.67-.4-4.16-1.14-4.16-3.68s2-3.44 4.65-3.44zm-57.57 0c1.75 0 3.83.17 4.75.25 0 1.55-.67 2.3-2 2.2-.75 0-1.9-.08-3.16-.08-.75 0-1.33.32-1.33 1.06 0 .9.74 1.06 3.16 1.47 2.58.5 3.9 1.23 3.9 3.7s-1.92 3.52-5.08 3.52c-1.83 0-3.5-.08-4.66-.17l.2-2.45c1.08.08 2.83.16 4.4.16 1.08 0 2.25-.16 2.25-1.14 0-.82-.5-1-2.92-1.4-2.66-.4-4.16-1.14-4.16-3.68s1.96-3.44 4.62-3.44zm-18.38-2c0-1.64 1.5-2.05 3-1.9v4H37c.17 1.64-.4 2.38-2 2.38h-2.1v5.57c0 1.22.6 1.63 1.75 1.63.694.015 1.39-.012 2.08-.08l.1 2.37a22.47 22.47 0 0 1-2.58.17c-3.17 0-4.4-1.3-4.4-4.26v-5.4H27.6v-2.4h2.25v-2.08zM95.3 33.9c3 0 4 1.24 4.08 3.56v.2h.08v7.94a54.07 54.07 0 0 1-7.24.4c-2.58 0-3.74-1.4-3.74-3.77 0-2.62 1.58-3.35 4.24-3.76 1-.14 2-.27 3.1-.36l.66-.05v-.4c0-1-.42-1.3-1.33-1.3s-2.75.08-3.66.08c-1.34 0-1.75-.74-1.75-2.2 1.08-.08 3.66-.33 5.57-.33z"/></svg>