<svg xmlns="http://www.w3.org/2000/svg" height="198" width="492" xml:space="preserve" fill="#fff" style="enable-background:new 0 0 491.98 197.49" viewBox="0 0 491.98 197.49"><path d="M460.27 138.89c.32 0 .62-.01.91-.03.29-.02.54-.08.76-.18.22-.09.4-.24.53-.45.13-.2.2-.48.2-.85 0-.31-.06-.55-.18-.73-.12-.18-.27-.32-.46-.42-.19-.1-.41-.17-.65-.2-.24-.03-.49-.05-.72-.05h-1.88v2.91h1.49zm.62-4.05c1.09 0 1.89.21 2.42.65.52.43.78 1.09.78 1.97 0 .82-.23 1.42-.69 1.81-.46.38-1.03.61-1.71.68l2.61 4.04h-1.53l-2.49-3.93h-1.51v3.93h-1.42v-9.14h3.54zm-6.45 7.2c.33.82.78 1.52 1.36 2.12.58.6 1.26 1.07 2.05 1.41.79.34 1.64.51 2.56.51.91 0 1.75-.17 2.53-.51.78-.34 1.46-.81 2.04-1.41.58-.6 1.03-1.3 1.36-2.12.33-.82.49-1.71.49-2.67 0-.93-.17-1.8-.49-2.61-.33-.81-.78-1.51-1.36-2.1a6.45 6.45 0 0 0-2.04-1.4 6.25 6.25 0 0 0-2.53-.51 6.36 6.36 0 0 0-4.61 1.91c-.58.59-1.03 1.29-1.36 2.1-.33.8-.49 1.68-.49 2.61 0 .96.17 1.85.49 2.67m-1.28-5.74c.42-.95.98-1.77 1.71-2.47.72-.7 1.55-1.24 2.51-1.64.96-.4 1.97-.6 3.04-.6s2.08.2 3.03.6c.95.4 1.78.94 2.49 1.64.71.7 1.28 1.52 1.69 2.47.42.95.63 1.98.63 3.07 0 1.13-.21 2.17-.63 3.13-.42.96-.98 1.78-1.69 2.49-.71.71-1.54 1.25-2.49 1.64-.95.39-1.96.59-3.03.59s-2.09-.19-3.04-.59c-.95-.39-1.79-.94-2.51-1.64-.72-.7-1.29-1.53-1.71-2.49-.42-.96-.63-2-.63-3.13 0-1.09.21-2.12.63-3.07M241.24 130.31c-1.67 1.45-4.04 2.39-6.15 2.4-2.67.01-4.95-1.47-4.96-5.33-.03-9.58 13.01-18.18 21.7-18.12-1.92 7.53-3.41 14.84-10.59 21.05m163.77.99c-12.48-3.57-18.91-11.48-21.41-18.62 4.09-3.43 9.16-6.47 14.14-9.77 2.89-1.92 3.69-3.89 4.85-6.93 1.4-3.67 2.81-8.86 2.88-11.47.06-1.89-.09-3.35-2.5-3.27-2.32.08-10.38 5.3-12.35 6.64-11.02 7.51-20.41 16.68-28.53 27.24 3.67-14.87 7.87-36.8 9.66-47.93.58-3.59 1.54-8.48-.44-11.8-1.53-2.55-5.83-7.56-9.21-9.48-3.24-1.83-4.91.34-5.51 3.29-2.17 10.72-3.39 16.62-5.17 25.39-2.54 12.47-4.8 22.4-10.43 36.36-3.17 7.86-10.32 21.74-18.37 21.77-7.85.03-5.03-19.01-5.05-24.17-.01-1.83-.3-6.29-4.63-7.26-14.48-3.26-16.66-7.96-19.52-7.45-1.78.32-2.82 1.95-3.55 4.36-2.88 9.58-4.47 18.21-10.1 26.76-2.62 3.97-7.46 8.68-11.17 8.69-3.73.01-5-3.32-5-6.65 0-9.35 2.6-18.88 3.79-24.22.89-3.98-1.26-4.69-3.32-5.29-2.64-.77-5.93-.88-7.14-.88-11.23.04-21.64 3.65-30.32 10.77-3.63 2.98-6.54 6.62-9.53 10.21-3.29 3.96-13.02 15.95-18.85 15.97-4.05.01-4.5-4.56-4.51-7.69-.05-13.83 6.66-34.91 11.6-47.53 3.28-8.39 6.76-15.98 7.83-20.45.88-3.69-.1-6.98-2.14-9.73-2.73-3.68-5.75-6.26-8.48-7.52-1.92-.89-3.78-.36-5.08 1.47-2.14 3.02-4.94 9.16-6.05 11.57-8.66 18.79-15.18 40.7-15.1 61.47.04 11.14 1.28 31.53 16.53 31.47 8.4-.03 15.75-5.13 21.11-11.26 1.05 7.21 6.76 11.28 14.71 11.26 8.76-.03 16.73-5.04 22.08-11.68 1.74 7.34 7.49 11.7 14.99 11.68 18.03-.07 28.73-19.9 33.51-34.75.57.37 1.52.63 1.52.63-.14 1.71-.25 4.32-.25 6.38.02 11.67 2.8 27.8 18 27.75 12.97-.05 21.31-12.07 27.28-22.01h.36c-1.05 6.76-2.43 12.24-2.89 19.15-.2 2.97 4.02 2.7 5.9 2.7 9.26 0 8.88-2.2 11.35-10.1 1.63-5.18 5.52-9.04 9.39-12.64 1.96 4.16 6.3 11.22 12.72 16.61 3.95 3.32 9.5 6.18 14.34 6.17 2.1-.01 3.14-.28 4.74-1.52 3.34-2.59 5.96-8.12 6.26-10.1.27-1.88-1.3-3.12-2.94-3.59"/><path d="M453.06 120.91c.55 8.66-5.97 15.01-14.75 19.75-9.22 4.98-19.85 7.62-27.79 6.93-1.7-.15-2.8-1.32-2.43-3.83.35-2.34 1.13-4.42 2-6.12 1.21-2.36 2.98-3.96 6.4-4.35 2.13-.24 6.5-.33 10.17-1.47 4.28-1.33 8.77-3.34 8.77-6.92 0-6.34-27.86-2.73-27.86-15.18 0-12.62 20.79-18.54 28.87-20.81 3.64-1.02 7.81-1.57 9.42-1.57 1.95 0 2.77 1.26 2.41 2.97-.81 3.78-2.53 8.4-6.72 9.45-1.85.47-11.72 2.43-14.97 4.01-1.01.49-1.58 1.19-1.57 1.89 0 .88 1.07 1.4 2.84 1.86 7.17 1.84 24.54 2.77 25.21 13.39M171.94 146.25c-2.81 0-5.46-.34-8.24-.7-9.72-1.26-18.64-1.98-27.45-1.98-17.98 0-32.02 1.72-47.92 4.13-12.42 1.88-22.9 3.21-32.55 3.5-13.63.42-27.89-2.32-27.89-18.94 0-19.49 21.58-43.51 41.92-59.79 19.69-15.76 41.34-26.93 55.34-32.57 9.34-3.77 20.76-7.19 27.88-7.19 6.86 0 5.79 6.06.75 14.71-4.74 8.15-6.88 10.23-13.51 11.06-11.52 1.45-28.04 2.85-59.43 26.84-17.87 13.65-34.1 32.57-33.82 42.32.18 6.17 4.76 8.15 10.37 8.15 8.23 0 17.56-1.76 29.35-3.91 18.5-3.37 41.55-8.15 60.95-8.15 5.23 0 10.13.57 14.56 1.7 3.4.87 5.57 2.83 7.78 5.73 1.8 2.36 3.39 5.09 4.61 7.57 1.11 2.26 2.05 4.54 1.33 5.99-.47.94-1.55 1.53-4.03 1.53"/></svg>