<svg xmlns="http://www.w3.org/2000/svg" width="160" height="160" viewBox="0 0 120 120"><g fill="#fff"><path d="M0 60v60h120V0H0v60zm113 0v53H7V7h106v53z"/><path d="M23 54.6c0 17.9.9 21.1 6.9 25.1 5.1 3.4 7.1 3.1 7.1-1.2 0-2.4-.5-3.5-1.5-3.5-2.6 0-4.7-6-5.3-14.7l-.5-8.3h3.2c2.9 0 3.1-.2 3.1-3.5 0-3.2-.2-3.5-3-3.5-2.3 0-3-.5-3-1.9 0-1-.8-2.1-1.7-2.4-1-.2-2.6-.8-3.5-1.2-1.7-.7-1.8.4-1.8 15.1zM53 52.2c0 15.1-1 20.1-4.5 22.4-1.7 1.1-2.5 2.6-2.5 4.6 0 2.8.2 3 2.8 2.4 3.9-1 7.2-3.7 9.3-7.6 1.6-2.9 1.9-5.8 1.9-17.7V42.1l-3-1.6c-1.6-.8-3.1-1.5-3.5-1.5-.3 0-.5 6-.5 13.2zM69.2 54.7c.3 14.4.5 16.2 2.6 19.9 3 5.1 6.8 7.4 12.2 7.4 4.7 0 8.5-1.7 11.9-5.4 3.4-3.6 4-11.8 1.2-16.4-3.9-6.1-11.1-8.7-17.5-6.2L77 55V42l-3.6-1.5c-2-.8-3.9-1.5-4.1-1.5-.3 0-.3 7.1-.1 15.7zm20.3 7.8c2.7 2.6 3.1 5.4 1.5 8.5-2.7 5-10 4.9-12.6-.1-1.8-3.5-1.1-6.7 2-9.1 3-2.5 6.3-2.2 9.1.7z"/></g></svg>