<svg xmlns="http://www.w3.org/2000/svg" width="112" height="21"><path fill="#fff" d="M0 0h4.123v15.21c0 .67.123 1.117.37 1.343.245.226.573.339.984.339.37 0 .723-.036 1.061-.108.339-.072.641-.171.908-.298L8 19.27a8.7 8.7 0 0 1-1.923.54c-.728.127-1.4.19-2.015.19-1.293 0-2.293-.302-3-.908C.354 18.487 0 17.633 0 16.532V0zm12.062 11.175h8.066c-.079-.74-.3-1.382-.662-1.927a3.786 3.786 0 0 0-1.428-1.276 4.223 4.223 0 0 0-1.972-.458c-.707 0-1.35.153-1.928.458-.58.305-1.05.73-1.413 1.276-.364.545-.584 1.188-.663 1.927M16.095 20c-1.236 0-2.355-.201-3.356-.603-1-.402-1.854-.954-2.56-1.656a7.279 7.279 0 0 1-1.62-2.399A7.457 7.457 0 0 1 8 12.452c0-1.384.328-2.661.986-3.83.657-1.17 1.59-2.106 2.797-2.808 1.207-.7 2.654-1.052 4.342-1.052 1.667 0 3.1.352 4.297 1.054 1.197.703 2.12 1.625 2.767 2.768.648 1.143.811 1.894.811 2.727 0 .928-.595 2.248-1.332 2.248H12.18c.059.776.28 1.437.662 1.983.383.545.873.966 1.472 1.262a4.23 4.23 0 0 0 1.899.443c.804 0 1.555-.184 2.252-.553.696-.369 1.172-.865 1.428-1.49l3.355.908a5.927 5.927 0 0 1-1.56 2.015c-.687.587-1.501 1.046-2.443 1.376-.942.331-1.992.497-3.15.497M40 19.048h-3.852v-7.855c0-1.122-.206-1.941-.618-2.458-.413-.516-1.002-.775-1.768-.775-.518 0-1.04.124-1.567.371a4.665 4.665 0 0 0-1.409 1.02c-.412.432-.733.93-.963 1.495v8.202H26V4.978h3.478v2.625a5.248 5.248 0 0 1 1.467-1.528 7.294 7.294 0 0 1 2.04-.965 8.5 8.5 0 0 1 2.473-.348c.939 0 1.71.157 2.314.47.604.312 1.064.736 1.38 1.272.316.537.536 1.13.661 1.783.125.652.187 1.308.187 1.97v8.79zm9.837.952c-1.31 0-2.567-.208-3.77-.624-1.204-.416-2.226-1.031-3.067-1.845l1.438-2.468c.9.719 1.79 1.248 2.67 1.589.88.34 1.741.51 2.583.51.763 0 1.374-.127 1.834-.383.46-.255.69-.638.69-1.149 0-.373-.128-.658-.382-.854-.255-.196-.621-.364-1.1-.505-.48-.14-1.062-.303-1.747-.49-1.134-.336-2.078-.676-2.831-1.022-.754-.345-1.326-.775-1.717-1.288-.392-.514-.587-1.172-.587-1.975 0-.971.26-1.806.778-2.507.518-.7 1.242-1.247 2.171-1.639.93-.392 2.02-.588 3.272-.588a9.66 9.66 0 0 1 3.11.496 7.448 7.448 0 0 1 2.671 1.604l-1.614 2.44c-.763-.605-1.496-1.045-2.2-1.32a5.896 5.896 0 0 0-2.143-.411c-.41 0-.797.047-1.159.14-.362.093-.656.247-.88.46-.225.215-.338.518-.338.908 0 .336.103.606.308.81.206.205.518.382.94.53.42.15.933.317 1.54.504 1.233.335 2.27.675 3.11 1.02.842.344 1.483.777 1.923 1.298.44.521.66 1.229.66 2.123 0 1.452-.558 2.588-1.673 3.407-1.115.82-2.611 1.229-4.49 1.229M67 19.019c-.34.146-.732.295-1.176.45-.444.154-.925.281-1.444.381-.52.1-1.044.15-1.573.15-.718 0-1.37-.117-1.954-.35a3.02 3.02 0 0 1-1.403-1.122c-.35-.512-.524-1.183-.524-2.01V8.363H57V5.585h1.926V.952h3.825v4.633h3.116v2.78H62.75v6.912c.018.484.16.839.425 1.062.264.224.604.336 1.02.336a3.33 3.33 0 0 0 1.133-.204 14.3 14.3 0 0 0 .934-.368L67 19.02zm4.993-6.624c0 .835.175 1.587.524 2.255a3.84 3.84 0 0 0 3.468 2.115c.738 0 1.409-.19 2.011-.57a4.168 4.168 0 0 0 1.443-1.56c.36-.658.539-1.414.539-2.268 0-.835-.18-1.582-.539-2.24-.36-.66-.84-1.18-1.443-1.56-.602-.38-1.282-.57-2.04-.57-.738 0-1.409.19-2.01.57a4.04 4.04 0 0 0-1.429 1.56c-.35.658-.524 1.414-.524 2.268M75.985 20c-1.243 0-2.356-.206-3.337-.617a7.64 7.64 0 0 1-2.52-1.684 7.212 7.212 0 0 1-1.589-2.428A7.725 7.725 0 0 1 68 12.395c0-1.048.18-2.03.54-2.947a7.133 7.133 0 0 1 1.573-2.427c.69-.701 1.53-1.253 2.52-1.656.992-.402 2.1-.603 3.323-.603 1.263 0 2.385.201 3.366.603a7.582 7.582 0 0 1 2.521 1.656c.7.702 1.234 1.51 1.603 2.427.37.917.554 1.9.554 2.947 0 1.01-.185 1.97-.554 2.876a7.405 7.405 0 0 1-1.603 2.428 7.65 7.65 0 0 1-2.52 1.684c-.982.41-2.095.617-3.338.617M95 8.071c-1.189.018-2.243.229-3.163.632-.92.404-1.591 1-2.013 1.79v8.555H86V5.085h3.537v2.879c.536-.97 1.222-1.731 2.056-2.287.834-.556 1.71-.861 2.63-.915.192.018.346.023.46.013a.763.763 0 0 1 .317.04v3.256zm5.062 3.104h8.066c-.079-.74-.3-1.382-.662-1.927a3.786 3.786 0 0 0-1.428-1.276 4.226 4.226 0 0 0-1.972-.458c-.707 0-1.35.153-1.928.458-.58.305-1.05.73-1.413 1.276-.364.545-.585 1.188-.663 1.927M104.095 20c-1.236 0-2.355-.201-3.356-.603-1-.402-1.854-.954-2.56-1.656a7.279 7.279 0 0 1-1.62-2.399 7.457 7.457 0 0 1-.559-2.89c0-1.384.328-2.661.986-3.83.657-1.17 1.59-2.106 2.797-2.808 1.207-.7 2.654-1.052 4.342-1.052 1.667 0 3.1.352 4.298 1.054 1.196.703 2.119 1.625 2.766 2.768.648 1.143.811 1.894.811 2.727 0 .928-.595 2.248-1.332 2.248H100.18c.059.776.28 1.437.662 1.983.383.545.873.966 1.472 1.262a4.23 4.23 0 0 0 1.899.443c.804 0 1.555-.184 2.252-.553.696-.369 1.172-.865 1.428-1.49l3.355.908a5.927 5.927 0 0 1-1.56 2.015c-.687.587-1.501 1.046-2.443 1.376-.942.331-1.992.497-3.15.497"/></svg>