<svg xmlns="http://www.w3.org/2000/svg" viewBox="0 0 130.4 53.1"><path fill="#fff" d="M59 15.9c0-.9.8-1.7 1.8-1.7s1.8.8 1.8 1.7-.8 1.7-1.8 1.7-1.8-.8-1.8-1.7Zm-25.6 6.8c0-.7-.6-.7-1.4-.7s-1.3 0-1.4.5c-.3.6-2 4.4-3.3 6.3-1.5 2.2-3.4 4.5-5.2 3.7-.9-.4-1-1.6-.9-3 .2-3.1.4-4.4.4-4.4l.2-2.5c0-.7-.6-.7-1.4-.7s-1.4 0-1.4.7l-.2 2.7c0 1-.2 2.5-.4 4-.4 3.8 1 5.2 3.1 5.7.4.1.8.2 1.2.2 3.1 0 5.4-3.2 6.7-5 .2-.3.5-.7.7-1.1l-.4 4.8c0 .7.6.7 1.4.7s1.4 0 1.4-.5l.9-11.2v-.1Zm81.1-.4c-3 .6-5.4.8-7.7 1l.4.4c1.1 1.3 1.5 3.2 1.2 5.2-.5 3.5-2.9 5.8-6.1 5.8h-.8c-1.6-.2-3-.9-4-2-1.1-1.3-1.5-3.2-1.2-5.2.2-1.3.6-2.5 1.3-3.4-2.2.4-4.3 1-6.3 2.5-1.3 1-2 2.1-2.3 3l-.3 4.3c0 .7-.6.7-1.4.7s-1.4 0-1.4-.7l.5-5.7c-.1.1-.2.2-.3.4-2.2 2.5-4.1 3.7-6.9 4.7-2.2.8-4.4 1.2-6.5 1.2-.6 0-.6-.6-.5-1.2 0-.6 0-1.1.5-1.2s.7-.2 1.4-.3c.8-.2 1.3-.3 1.3-.3.2 0 1.7-.4 2.6-2.5.4-1.1.5-2.1.2-2.8-.3-.6-.8-1.1-1.7-1.3-1.7-.4-3.9 1-5 1.8l-.6 7.4-.5 6.8-.2 2.1c0 .7-.6.7-1.4.7s-1.4 0-1.4-.7l.5-6.7.8-9.7-7.6 8c-.2.4-.7.4-1.4.4s-1.4 0-1.4-.7l.6-7.4-7.2 7.9c-.2.3-.7.3-1.4.3s-1.4 0-1.4-.7.2-2.3 0-5c-.1-2.5-.5-3.5-1.3-3.7-1.7-.3-2.6.8-4.1 2.9-.1.2-.2.3-.3.5-1.2 1.7-2.7 4.7-3.2 5.7-.2.3-.7.3-1.4.3s-1.4 0-1.4-.7l.9-11.2c0-.6.7-.6 1.4-.6s1.5 0 1.4.6l-.4 4.7c.1-.2.2-.3.3-.5.1-.1.2-.3.3-.4 1.4-2 3.6-4.3 7.4-4.1 3.1.2 3.5 3.7 3.6 6.3v1.5l7.3-8c.2-.2.7-.2 1.3-.2s1.5 0 1.4.7l-.6 7.6 7.7-8.1c.2-.3.7-.3 1.3-.3s1.5 0 1.4.7v.3c1.4-.8 3.3-1.4 5.2-.9 2.1.5 3.1 1.6 3.6 2.9.7 1.7.5 3.1-.4 4.7l-.3.6c1.5-.7 2.8-1.6 4.5-3.5 1.3-1.4 2.3-3.6 2.6-4.3.1-.5.7-.5 1.4-.5s1.5 0 1.4.7l-.2 2.3c.1 0 .2-.2.4-.3 3.8-2.9 7.9-3.2 11.8-3.4h.5c.8-.1 1.7-.2 2.4-.2 3.1-.2 5.7-.4 9.4-1.1.6 0 .7.4.8 1.1.1.6.2 1.2-.3 1.3Zm-9.4 3.1c-.5-.6-1.2-1-2.1-1h-.5c-2.7 0-3.3 2.4-3.5 3.5-.2 1.3 0 2.5.7 3.3.5.6 1.2 1 2.1 1.1 1 .1 3.5 0 4-3.5.2-1.4 0-2.5-.7-3.3ZM2.9 50.3h124.7v-47L2.9 7.9v42.4Zm127.5 2.9H0V5.1h1.4l129-4.8v52.9Z"/></svg>