<svg xmlns="http://www.w3.org/2000/svg" width="175" height="31" fill="none"><g clip-path="url(#a)"><path fill="#A5A5A5" fill-rule="evenodd" d="M14.21 6.027a22.715 22.715 0 0 1-.5.653c-.787.985-1.672 1.9-2.631 2.716-.52.445-1.073.838-1.66 1.252-1.234.876-2.512 1.782-3.576 3.238-1.53 2.097-2.373 4.597-2.373 7.042a11.852 11.852 0 0 0 1.191 5.182 8.614 8.614 0 0 1-3.768-3.807 8.553 8.553 0 0 1-.773-2.345c-.32-1.804.01-3.683.813-5.321.863-1.759 2.33-2.778 3.54-4.247A18.46 18.46 0 0 0 6.66 7.072 18.346 18.346 0 0 0 8.44 1.68L8.657.308c.178.122.604.424.673.475a19.62 19.62 0 0 1 4.88 5.244Z" clip-rule="evenodd"/><path fill="#fff" fill-rule="evenodd" d="M26.176 18.273c-.224 3.842-1.327 7.946-4.438 10.47a10.087 10.087 0 0 1-13.484-.693 10.07 10.07 0 0 1-2.545-4.261 10.012 10.012 0 0 1-.414-2.861c0-2.146.763-4.245 2.023-5.972 1.354-1.853 3.252-2.731 4.947-4.178a21.74 21.74 0 0 0 3.198-3.384 21.535 21.535 0 0 0 3.156-5.856L19.146 0c.181.177.609.61.68.684 4.448 4.668 6.727 11.18 6.352 17.59h-.002Z" clip-rule="evenodd"/><path fill="#fff" d="M100.939 11.868a10.014 10.014 0 0 0-1.488-.117c-3.522 0-5.127 2.029-5.127 5.58v9.055h-4.54V7.38h4.424v3.045c.9-2.069 3.013-3.278 5.518-3.278.548 0 1.017.077 1.213.117v4.605ZM168.088 20.842c-.99 3.223-3.919 5.841-8.369 5.841-5.021 0-9.472-3.642-9.472-9.9 0-5.842 4.337-9.71 9.016-9.71 5.707 0 9.054 3.754 9.054 9.596 0 .721-.076 1.327-.114 1.403H154.66c.115 2.807 2.321 4.818 5.06 4.818 2.74 0 4.033-1.404 4.641-3.224l3.728 1.176h-.001Zm-4.223-5.993c-.076-2.162-1.522-4.097-4.565-4.097-2.778 0-4.375 2.125-4.527 4.097h9.092ZM128.34 16.864c0 3.72 2.399 5.806 5.177 5.806 2.779 0 4.225-2.011 4.643-3.415l3.883 1.405c-.876 2.884-3.654 6.034-8.526 6.034-5.443 0-9.591-4.213-9.591-9.829 0-5.616 4.148-9.79 9.477-9.79 4.986-.001 7.727 3.111 8.488 6.07l-3.959 1.443c-.418-1.632-1.675-3.454-4.491-3.454-2.817 0-5.101 2.012-5.101 5.73ZM67.528 11.704c.768-1.486 1.811-2.63 3.13-3.43 1.319-.8 2.792-1.201 4.42-1.201 1.423 0 2.666.286 3.733.858 1.066.572 1.92 1.292 2.562 2.16v-2.71h4.85v19.002h-4.85v-2.778c-.618.892-1.473 1.629-2.562 2.212-1.089.582-2.344.875-3.767.875-1.605 0-3.067-.413-4.385-1.235-1.319-.823-2.362-1.984-3.13-3.481-.768-1.498-1.152-3.218-1.152-5.162s.384-3.623 1.152-5.11h-.001Zm13.157 2.178c-.459-.834-1.078-1.476-1.857-1.921a4.976 4.976 0 0 0-2.51-.67c-.895 0-1.72.217-2.478.653-.757.435-1.371 1.068-1.84 1.903-.47.836-.705 1.825-.705 2.967 0 1.143.234 2.144.705 3.001.469.858 1.089 1.515 1.857 1.972a4.72 4.72 0 0 0 2.459.686c.871 0 1.73-.223 2.511-.67.78-.445 1.399-1.085 1.857-1.92.459-.834.688-1.835.688-3 0-1.167-.23-2.166-.688-3.001h.002ZM103.141 11.704c.768-1.486 1.811-2.63 3.13-3.43 1.319-.8 2.792-1.201 4.421-1.201 1.422 0 2.665.286 3.733.858 1.065.572 1.92 1.292 2.562 2.16v-2.71h4.849v19.002h-4.849v-2.778c-.619.892-1.473 1.629-2.562 2.212-1.09.582-2.345.875-3.767.875-1.606 0-3.068-.413-4.386-1.235-1.318-.823-2.361-1.984-3.129-3.481-.769-1.498-1.153-3.218-1.153-5.162s.384-3.623 1.153-5.11h-.002Zm13.158 2.178c-.46-.834-1.078-1.476-1.857-1.921a4.98 4.98 0 0 0-2.512-.67c-.894 0-1.72.217-2.477.653-.757.435-1.371 1.068-1.84 1.903-.47.836-.705 1.825-.705 2.967 0 1.143.235 2.144.705 3.001.469.858 1.089 1.515 1.857 1.972a4.72 4.72 0 0 0 2.459.686c.872 0 1.731-.223 2.511-.67.779-.445 1.399-1.085 1.858-1.92.458-.834.688-1.835.688-3 0-1.167-.23-2.166-.688-3.001h.001ZM148.55 1.005v25.38h-4.816V1.005h4.816ZM53.145 7.38l4.501 13.151L61.442 7.38h4.619l-6.105 19.006h-4.54L51.41 13.454l-3.89 12.931h-4.658L36.678 7.379h4.854l3.874 13.152L49.907 7.38h3.238ZM172.922 10.083a.908.908 0 0 0 .561-.843c0-.524-.437-.946-.999-.946h-1.152v2.91h.693v-1.012h.211l.503 1.011h.766l-.583-1.12Zm-.562-.458h-.335v-.763h.335c.263 0 .423.145.423.385 0 .24-.16.378-.423.378Zm.562.458a.908.908 0 0 0 .561-.843c0-.524-.437-.946-.999-.946h-1.152v2.91h.693v-1.012h.211l.503 1.011h.766l-.583-1.12Zm-.562-.458h-.335v-.763h.335c.263 0 .423.145.423.385 0 .24-.16.378-.423.378Zm-.058-2.552a2.691 2.691 0 0 0-2.684 2.698 2.685 2.685 0 0 0 2.684 2.69A2.703 2.703 0 0 0 175 9.771a2.709 2.709 0 0 0-2.698-2.698Zm0 4.814c-1.16 0-2.064-.931-2.064-2.116 0-1.186.904-2.124 2.064-2.124 1.159 0 2.064.931 2.064 2.124 0 1.192-.905 2.116-2.064 2.116Zm1.181-2.647c0-.524-.437-.946-.999-.946h-1.152v2.91h.693v-1.012h.211l.503 1.011h.766l-.583-1.12a.908.908 0 0 0 .561-.843Zm-1.123.385h-.335v-.763h.335c.263 0 .423.145.423.385 0 .24-.16.378-.423.378Z"/></g><defs><clipPath id="a"><path fill="#fff" d="M0 0h175v31H0z"/></clipPath></defs></svg>