<svg xmlns="http://www.w3.org/2000/svg" width="160" height="48" fill="#fff"><path d="m30.795 10.82-4.166 17.249-4.79-17.25h-6.813L10.22 28.07 6.1 10.819H0l6.962 23.963h6.383l5.087-17.923 5.088 17.923h6.382L36.91 10.82h-6.114Zm33.458 23.962v-5.26h-2.975c-1.22 0-2.068-.224-2.574-.66-.491-.434-.744-1.228-.744-2.397v-10.49h6.427v-5.17H57.96V4.39h-6.144v6.429H47.74v5.17h4.076v10.445c0 3.117.759 5.305 2.261 6.52 1.503 1.228 3.496 1.827 5.995 1.827h4.181Zm-25.053 0h6.144V10.82H39.2v23.962ZM45.062 6.7c.729-.75 1.086-1.679 1.086-2.818s-.357-2.068-1.086-2.787C44.332.36 43.396 0 42.265 0c-1.13 0-2.068.36-2.797 1.094-.729.734-1.086 1.663-1.086 2.787 0 1.124.357 2.068 1.086 2.818.73.749 1.651 1.124 2.797 1.124 1.145 0 2.068-.375 2.797-1.124Zm83.563 16.155c0-3.717-2.514-7.179-6.62-7.179s-6.635 3.462-6.635 7.179c0 3.716 2.484 7.178 6.635 7.178 4.15 0 6.62-3.462 6.62-7.178Zm-19.281 0c0-6.55 4.702-12.559 12.646-12.559 7.944 0 12.615 6.01 12.615 12.559 0 6.548-4.701 12.558-12.615 12.558-7.915 0-12.646-6.01-12.646-12.558Zm-8.226-12.034v12.378c0 2.188-.551 3.897-1.652 5.125-1.1 1.23-2.514 1.829-4.24 1.829-1.725 0-3.05-.54-3.882-1.649-.834-1.094-1.25-2.667-1.25-4.735V21.25c0-3.611-.818-6.354-2.44-8.212-1.636-1.873-3.912-2.803-6.858-2.803-5.52 0-7.87 3.792-7.885 3.822V0h-6.114v34.797h6.144V22.434c0-2.188.55-3.896 1.651-5.125 1.101-1.23 2.514-1.844 4.24-1.844 1.726 0 3.05.555 3.883 1.649.833 1.094 1.25 2.668 1.25 4.735v2.503c0 3.612.818 6.354 2.454 8.213 1.637 1.873 3.913 2.802 6.859 2.802 5.534 0 7.869-3.792 7.884-3.822v3.177c0 4.436-2.44 7.778-6.65 7.778-4.21 0-6.263-2.173-7.2-5.44l-5.46 2.368C83.355 44.568 88.205 48 94.363 48c7.751 0 12.914-5.035 12.914-13.053V10.82h-6.159Zm38.025 21.745c1.636 1.873 3.912 2.802 6.858 2.802 5.519 0 7.87-3.792 7.885-3.822v3.222H160V10.82h-6.144v12.378c0 2.188-.551 3.897-1.651 5.125-1.101 1.23-2.515 1.829-4.24 1.829-1.726 0-3.05-.54-3.883-1.649-.833-1.094-1.25-2.667-1.25-4.735V10.82h-6.144v13.532c0 3.612.818 6.354 2.455 8.213Z"/></svg>